<svg id="svg4136" xmlns="http://www.w3.org/2000/svg" xmlns:xlink="http://www.w3.org/1999/xlink" viewBox="0 0 497.3 74">
 <style>.st0{clip-path:url(#SVGID_2_);} .st1{fill:#F47216;} .st2{fill:#231F20;}  .st3{fill:#DB1D2B;}</style><g id="g4144"><g transform="matrix(2.4021 0 0 -2.4021 -848.96 148.11)" id="g9060"><defs><path id="SVGID_1_" d="M-258.5-990.5h1470.8v2063.2H-258.5z"/></defs><clipPath id="SVGID_2_"><use xlink:href="#SVGID_1_" overflow="visible"/></clipPath><g id="g9062" class="st0"><g id="g9298"><g id="g9068"><path id="path9070" class="st1" d="M464.797 39.25c-.1-.1-.3-.3-.5-.4h-.1.1c3.6-1 7.1-.9 7.8 1.3.9 2.9-4.8 6-7.5 7.4-.6.3-.8.2-.5-.3 1.7-1.9 4.1-5.8.7-8"/></g><g id="g9072"><path id="path9074" class="st2" d="M495.654 51.894h-3v2.5h3v3.7h2.9v-3.7h4.8v-2.5h-4.7v-7.6c0-1.9.5-2.9 3-2.9.9 0 2 .3 2 .3v-2.6c-1-.1-1.8-.2-2.9-.2-4.6 0-5 3.3-5 5.1v7.9z"/></g><path id="path9076" class="st2" d="M537.5 38.7h-3v15.7h3V38.7z"/><g id="g9078"><path id="path9080" class="st2" d="M542.776 46.718c0-4.3 3.5-5.3 5.2-5.3 3.2 0 5.4 1.8 5.4 5.4 0 3.6-2.6 5.2-5.5 5.2-1.6 0-5.1-1-5.1-5.3m-3 0c0 5.9 4.8 7.9 8.1 7.9 3.8 0 5.6-2.2 5.6-2.2l.2 1.9h2.7v-15.6h-2.7l-.2 2.1s-1.9-2.1-5.6-2.1c-3.8 0-8.1 2.2-8.1 8"/></g><g id="g9082"><path id="path9084" class="st2" d="M537.95 58.05c0 1.1-.9 2-2 2s-2-.9-2-2 .9-2 2-2c1.2 0 2 .9 2 2"/></g><g id="g9086"><path id="path9088" class="st2" d="M532.306 51.742v2.7c-3 .3-5-.4-6.6-2.1l-.2 2.2h-2.8v-15.7h3v8.1c0 2.2 1.8 5 6.6 4.8"/></g><g id="g9090"><path id="path9092" class="st2" d="M504.107 46.69c0 4.9 3.6 8 8.5 8 4.8 0 8.1-3.5 8.1-7.8 0 0 0-.7-.1-1.3h-13.3c.1-2.4 2.9-4.2 5.8-4.2 3.1 0 4.9 1.9 4.9 1.9l2.1-1.9c-2.2-2.1-4.5-2.7-7.1-2.7-5.3 0-8.9 3.1-8.9 7.9v.1zm13.3 1.3c0 2.1-2.1 3.9-4.8 3.9-2.8 0-5.1-1.7-5.3-3.9h10.1z"/></g><g id="g9094"><path id="path9096" class="st2" d="M486.227 48.1c-3 .5-6 .9-6 2.3 0 .9.9 1.7 3.5 1.7 2 0 4.2-.5 4.8-1.8l2.8 1.2c-.9 2.1-4.1 3.1-7.7 3.1-3.2 0-6.6-1.2-6.6-4.4 0-2.8 2.5-3.6 6.7-4.4 2.8-.5 5.4-.8 5.4-2.3 0-.9-1.3-2.2-4.4-2.2-2.2 0-4.5.5-5.2 2.1l-2.7-1.1c1.1-2.5 4-3.7 7.4-3.7 6.8 0 8.1 3.2 8.1 5.1 0 3-3 3.8-6.1 4.4"/></g><g id="g9098"><path id="path9100" class="st2" d="M399.94 52.02c-2.9 0-5.5-1.6-5.5-5.2s2.2-5.4 5.4-5.4c1.7 0 5.2.7 5.2 5.3.1 4.6-3.4 5.3-5.1 5.3m.2-13.3c-3.8 0-5.6 2.4-5.6 2.4v-6.6h-2.9v19.9h2.7l.2-2s1.8 2.2 5.6 2.2c3.3 0 8.1-1.7 8.1-7.9s-4.4-8-8.1-8"/></g><g id="g9102"><path id="path9104" class="st2" d="M422.442 46.718c0-4.3 3.5-5.3 5.2-5.3 3.2 0 5.4 1.8 5.4 5.4 0 3.6-2.6 5.2-5.5 5.2-1.6 0-5.1-1-5.1-5.3m-3 0c0 5.9 4.8 7.9 8.1 7.9 3.8 0 5.6-2.2 5.6-2.2l.2 1.9h2.7v-15.6h-2.7l-.2 2.1s-1.9-2.1-5.6-2.1c-3.8 0-8.1 2.2-8.1 8"/></g><g id="g9106"><path id="path9108" class="st2" d="M419.617 51.742v2.7c-3 .3-5-.4-6.6-2.1l-.2 2.2h-2.8v-15.7h3v8.1c0 2.2 1.8 5 6.6 4.8"/></g><g id="g9110"><path id="path9112" class="st2" d="M365.237 48.1c-3 .5-6 .9-6 2.3 0 .9.9 1.7 3.5 1.7 2 0 4.2-.5 4.8-1.8l2.8 1.2c-.9 2.1-4.1 3.1-7.7 3.1-3.2 0-6.6-1.2-6.6-4.4 0-2.8 2.5-3.6 6.7-4.4 2.8-.5 5.4-.8 5.4-2.3 0-.9-1.3-2.2-4.4-2.2-2.2 0-4.5.5-5.2 2.1l-2.7-1.1c1.1-2.5 4-3.7 7.4-3.7 6.8 0 8.1 3.2 8.1 5.1 0 3-3 3.8-6.1 4.4"/></g><g id="g9114"><path id="path9116" class="st2" d="M381.247 54.64c-4 0-8.7-2-8.7-7.9 0-5.8 4.3-8.1 8.7-8.1 4.5 0 8.7 2.3 8.7 8.1.1 5.9-4.7 7.9-8.7 7.9m0-13.3c-2.5 0-5.7 1.1-5.7 5.3 0 4.4 3.6 5.3 5.7 5.3s5.7-.9 5.7-5.2-3.2-5.4-5.7-5.4"/></g><g id="g9118"><path id="path9120" class="st3" d="M464.198 38.88s-4.5-2.8-12.5-2.8c-3.1 0-5.7.5-6.8 1.5-1.2 1.1-1.8 3.1-1.8 4.8 0 1.5.6 2.8 1.9 2.8 3.5 0 14-5.3 19.2-6.3"/></g><g id="g9122"><path id="path9124" class="st1" d="M449.18 55.305c.2.1.4.2.5.3h.1v.1c-3.6 1-7.1.9-7.8-1.3-.9-2.9 4.8-6 7.5-7.4.6-.4.8-.2.4.2-1.7 2-4.1 5.8-.7 8.1"/></g><g id="g9126"><path id="path9128" class="st3" d="M449.78 55.675s4.5 2.8 12.5 2.8c3.1 0 5.7-.5 6.8-1.5 1.2-1.1 1.8-3.1 1.8-4.8 0-1.5-.6-2.8-1.9-2.8-3.4 0-13.9 5.3-19.2 6.3"/></g></g></g></g></g></svg>